<svg xmlns="http://www.w3.org/2000/svg" width="41.351" height="44.588" viewBox="0 0 41.351 44.588"><g transform="translate(-1794.137 -1017.697)"><path d="M102.34,4.18c-2.917,3.224-3.091,3.706-4.908,7.872a8.041,8.041,0,0,1-1.689-2.413A6.014,6.014,0,0,0,97.231,12.5c-3.194,6.8-8.15,2.4-4.25,7-.407,2.241-2.522,2.555-.464,3.481-2.992,1.056-.486,1.824-.619,2.552-.154.851-1.5,1.21-1.7,3.094s6.932,2.758,9.2,3.945c4.331,2.262,5.386,7.089,3.635,11.6-.855,2.207,13.471-4.95.542-22.817-5.047-6.668-1.184-17.2-1.238-17.172Zm23.438,29.448c-3.508-7.189,9.931-29.8-4.208-32.6l-5.064-1a28.721,28.721,0,0,1,8.34.726c15.391,5.26-.8,23.862.933,32.876ZM105.192,6.409c-5.271,17.477,20.929,25.334.159,37.642,26.216-7.88-3.131-22.433-.159-37.642Z" transform="translate(1703.943 1017.725)" fill="#2ed3ae" fill-rule="evenodd"/></g></svg>