<svg xmlns="http://www.w3.org/2000/svg" width="36.265" height="40.168" viewBox="0 0 36.265 40.168"><g transform="translate(-1794.249 -1019.916)"><g transform="translate(1689.4 1011.428)"><path d="M138.964,310.244c-2.539-3.577-8.755-5.384-9.018-5.46l-.677-.193-.255.654a10.94,10.94,0,0,1-1.06,1.963,9.682,9.682,0,0,1-9.949,0,11.031,11.031,0,0,1-1.057-1.963l-.257-.654-.674.193c-.262.077-6.477,1.883-9.018,5.46-1.484,2.089-2.15,5.818-2.15,7.8v.282l.183.216c.149.176,3.81,4.314,17.949,4.314s17.8-4.139,17.951-4.316l.182-.216v-.282c0-1.98-.668-5.709-2.152-7.8Zm-15.982,11.067c-11.588,0-15.708-2.851-16.581-3.591a14.362,14.362,0,0,1,1.858-6.583c1.787-2.518,5.95-4.121,7.547-4.663,1.787,3.686,6.453,7.885,6.662,8.074l.515.461.515-.461c.211-.188,4.877-4.388,6.664-8.076,1.6.542,5.754,2.143,7.544,4.666a14.309,14.309,0,0,1,1.86,6.58c-.888.752-5.011,3.594-16.584,3.594Z" transform="translate(0 -274.2)" fill="#2ed3ae"/><path d="M415.64,452.31h6.724v2.09H415.64Z" transform="translate(-287.801 -410.993)" fill="#2ed3ae"/><path d="M234.487,15.546a14.435,14.435,0,0,1,1.137-1.7c.025-.02.049-.036.074-.056a14.163,14.163,0,0,0,9.671,0l.064.049a14.435,14.435,0,0,1,1.142,1.706,27.318,27.318,0,0,0,2.7-1.7c-.921-2.584-3.193-5.357-8.746-5.357s-7.822,2.773-8.743,5.355a26.724,26.724,0,0,0,2.7,1.7Z" transform="translate(-117.548)" fill="#2ed3ae"/><path d="M232.69,130.435a3.53,3.53,0,0,0,.182-.864c.006-.1.021-.38.019-.769q-1.1.7-2.042,1.194a6.751,6.751,0,0,1,.054,3.376s.576.633.968-.711c.049-.167.1-.3.157-.451a2.623,2.623,0,0,1,.064.828c-.11,1.616-.769,1.8-1.052,1.875l-.446.123-.1.451c-.481,2.119-2.123,7.043-6.953,7.043s-6.47-4.926-6.95-7.043l-.1-.451-.444-.123c-.282-.079-.941-.26-1.052-1.875a2.44,2.44,0,0,1,.064-.828c.051.149.1.285.154.451.393,1.343.968.711.968.711a6.772,6.772,0,0,1,.051-3.367q-.945-.5-2.037-1.2c0,.388.014.663.02.768a3.378,3.378,0,0,0,.182.864,3.109,3.109,0,0,0-.941,2.709,3.32,3.32,0,0,0,1.731,3.1c1.245,4.916,4.347,7.836,8.357,7.836s7.115-2.92,8.357-7.836a3.321,3.321,0,0,0,1.733-3.1,3.1,3.1,0,0,0-.941-2.709Z" transform="translate(-100.558 -111.415)" fill="#2ed3ae"/><path d="M242.189,88.652a26.921,26.921,0,0,1-2.608,1.636,12.557,12.557,0,0,1-3.251,1.281,3.337,3.337,0,0,0-6.136,0,12.559,12.559,0,0,1-3.254-1.28,28.109,28.109,0,0,1-2.608-1.638,11.153,11.153,0,0,0-.4,2.3c.789.52,1.512.947,2.183,1.3a14.2,14.2,0,0,0,3.923,1.466,3.322,3.322,0,0,0,6.437,0,14.107,14.107,0,0,0,3.925-1.464c.669-.355,1.392-.782,2.179-1.3a10.9,10.9,0,0,0-.394-2.3Zm-8.928,5.457a1.228,1.228,0,1,1,.869-.359,1.229,1.229,0,0,1-.869.359Z" transform="translate(-110.278 -74.234)" fill="#2ed3ae"/></g></g></svg>