<svg xmlns="http://www.w3.org/2000/svg" width="42.376" height="28.824" viewBox="0 0 42.376 28.824"><g transform="translate(-1791.814 -1025.588)"><path d="M30.823,44.007H26.97V54.282a.642.642,0,1,1-1.284,0V44.007H21.833v6.421a.642.642,0,0,1-1.284,0V44.007H16.7v6.421a.642.642,0,0,1-.642.642H13.305L9.6,62.191a.642.642,0,0,1-.609.439H1.926a.642.642,0,0,1-.609-.845L4.977,50.8c-.089-.04-.184-.084-.284-.133a9.25,9.25,0,0,1-1.9-1.235A7.985,7.985,0,0,1,2.8,37.3a9.251,9.251,0,0,1,1.9-1.235,6.743,6.743,0,0,1,.894-.372.641.641,0,0,1,.191-.029H16.053a.642.642,0,0,1,.642.642v6.421h3.853V36.3a.642.642,0,1,1,1.284,0v6.421h3.853V34.448a.642.642,0,0,1,1.284,0v8.275h3.853V36.3a.642.642,0,1,1,1.284,0v6.421h2.622a3.853,3.853,0,1,1,0,1.284H32.107v6.421a.642.642,0,0,1-1.284,0ZM2.817,61.345h5.71l3.707-11.12a.642.642,0,0,1,.609-.439h2.569V36.944H5.884a6.375,6.375,0,0,0-.625.271,7.986,7.986,0,0,0-1.634,1.063,6.7,6.7,0,0,0,0,10.176,7.978,7.978,0,0,0,1.634,1.063,5.6,5.6,0,0,0,.712.3.642.642,0,0,1,.418.816ZM38.529,45.934a2.569,2.569,0,1,0-2.569-2.569A2.569,2.569,0,0,0,38.529,45.934ZM11.559,44.65a.642.642,0,1,1-1.284,0c0-2.924,1.284-2.924,1.284,0Zm-5.137,0a.642.642,0,0,1-1.284,0V42.081a.642.642,0,0,1,1.284,0Z" transform="translate(1791.81 991.782)" fill="#2ed3ae" fill-rule="evenodd"/></g></svg>