<svg xmlns="http://www.w3.org/2000/svg" viewBox="0 0 475.65 440.29"><g style="isolation:isolate"><g id="Layer_2" data-name="Layer 2"><g id="Objects"><path d="M350.6,52,296.2,41.55,282.27,31.09c-97-72.84-236.19-10.26-246.08,110.62l-2.62,32L24,188.88c-64.69,102.6,9,236.24,130.33,236.24h23c49.94,23.7,111.78,20.53,159.59-16.07a154.7,154.7,0,0,0,69.87-71.42l27.14-29C516.8,220.17,469.7,75,350.6,52Z" style="fill:#fff"/><path d="M154.32,425.12H267.8c121.28,0,195-133.64,130.32-236.24l-56.74-90C280.94,3,141.17,3,80.73,98.89L24,188.88C-40.7,291.48,33,425.12,154.32,425.12Z" style="fill:#ea9bb9;mix-blend-mode:multiply"/><path d="M36.19,141.71,26.94,254.82C17.05,375.7,144.24,460.08,251.76,404l94.32-49.21C446.55,302.34,458,163,367.34,95L282.27,31.09C185.29-41.75,46.08,20.83,36.19,141.71Z" style="fill:#ff3578;mix-blend-mode:multiply"/><path d="M356.27,391.48l77.6-82.81C516.8,220.17,469.7,75,350.6,52L246.14,31.9C134.87,10.46,39.29,112.44,67.91,222.09L94.77,325C125.4,442.38,273.33,480,356.27,391.48Z" style="fill:#dd6898;mix-blend-mode:multiply"/><path d="M120.79,253a40.7,40.7,0,0,1-16.17-3.16A37.82,37.82,0,0,1,92,241.14,40,40,0,0,1,83.72,228a44.24,44.24,0,0,1-3-16.3,46.15,46.15,0,0,1,3-16.54A43.17,43.17,0,0,1,92,181.48a39.53,39.53,0,0,1,12.66-9.37,37.37,37.37,0,0,1,16.17-3.48,36.51,36.51,0,0,1,15.94,3.48,39.82,39.82,0,0,1,12.57,9.37,42.74,42.74,0,0,1,8.21,13.69,46.78,46.78,0,0,1,2.92,16.54,44.84,44.84,0,0,1-2.92,16.3,39.63,39.63,0,0,1-8.21,13.13,38.05,38.05,0,0,1-12.57,8.73A39.75,39.75,0,0,1,120.79,253Zm0-25.71a15.34,15.34,0,0,0,6.21-1.24,15.16,15.16,0,0,0,4.92-3.4,15.49,15.49,0,0,0,3.25-5.12,17.31,17.31,0,0,0,1.16-6.33,18.47,18.47,0,0,0-1.16-6.53,17.11,17.11,0,0,0-3.25-5.4,16.27,16.27,0,0,0-4.92-3.73,13.94,13.94,0,0,0-6.21-1.4,14.63,14.63,0,0,0-6.37,1.4,16.42,16.42,0,0,0-5,3.73,17.28,17.28,0,0,0-3.32,5.4,17.85,17.85,0,0,0-1.2,6.53,16.74,16.74,0,0,0,1.2,6.33,15.66,15.66,0,0,0,3.32,5.12,15.35,15.35,0,0,0,5,3.4A16.12,16.12,0,0,0,120.79,227.32Z" style="fill:#fff"/><path d="M234.26,224.52a1.48,1.48,0,0,1,1.68,1.68v23.55a2,2,0,0,1-.44,1.32,1.51,1.51,0,0,1-1.24.52,25.81,25.81,0,0,1-9.49-1.68,22.37,22.37,0,0,1-7.56-4.89v2.8a50,50,0,0,1-2.89,18.06,28.2,28.2,0,0,1-8.65,12.05,36.34,36.34,0,0,1-14.49,6.77,87.76,87.76,0,0,1-20.5,2.12L168.84,266a38.36,38.36,0,0,0,9.17-1,20.19,20.19,0,0,0,7.28-3.32,15.33,15.33,0,0,0,4.81-6,21,21,0,0,0,1.72-9l-.16-75.11,25.55-3.12v44.12a12.7,12.7,0,0,0,2,5.13,13.33,13.33,0,0,0,3.8,3.72,18.38,18.38,0,0,0,5.13,2.28A22.2,22.2,0,0,0,234.26,224.52ZM212.8,123.62,230,140.52l-16.9,16.9-12-11.61L189.5,157.42l-17.22-16.9,16.9-16.9,11.93,11.69Zm-12.57,3.69L183,110.41l17.06-16.9,17.06,16.9Z" style="fill:#fff"/><path d="M233.62,251.59a1.43,1.43,0,0,1-1.16-.52,2,2,0,0,1-.44-1.32l.32-23.55c0-1.12.53-1.68,1.6-1.68h17.7c1.76,0,3.23,0,4.4,0l1.93,0q6-.48,8.88-4.44t2.89-12.21l-.16-36.2,25.62-3.12v48.68q0,16.66-9.21,25.31t-28,9.13Zm45.81,23.22,17.21,16.9L279.75,308.6l-12-11.61L256.12,308.6l-17.21-16.89,16.89-16.9,11.93,11.69Z" style="fill:#fff"/><path d="M347.57,168.47a40.63,40.63,0,0,1,15.3,2.84A35,35,0,0,1,375,179.44a37.59,37.59,0,0,1,8,12.89A47.44,47.44,0,0,1,386,209.47V248q0,10.65-4.92,18.06a36.11,36.11,0,0,1-13.82,12,72.11,72.11,0,0,1-21.3,6.69,165.84,165.84,0,0,1-27.39,2.08L315.94,266a171.8,171.8,0,0,0,19.54-1A56.28,56.28,0,0,0,349.17,262a19,19,0,0,0,8.17-5.53,14.36,14.36,0,0,0,3-8.29,52.08,52.08,0,0,1-7.6,2.53,31.45,31.45,0,0,1-7.45.92,40.12,40.12,0,0,1-15.41-2.88,34.39,34.39,0,0,1-12.06-8.25,37.39,37.39,0,0,1-7.8-12.9,48.27,48.27,0,0,1-2.77-16.81,44.42,44.42,0,0,1,3.13-16.86A41.26,41.26,0,0,1,319,180.52a39.69,39.69,0,0,1,12.78-8.85A39.09,39.09,0,0,1,347.57,168.47ZM330.2,210a17.74,17.74,0,0,0,1.32,7.12,13.73,13.73,0,0,0,3.64,5.05,15,15,0,0,0,5.53,3,19.9,19.9,0,0,0,6.32,1h.56a43,43,0,0,0,6.29-.48q3.24-.48,6.69-1.2V211.23a21.75,21.75,0,0,0-1.09-7.13,15,15,0,0,0-3-5.28,13.32,13.32,0,0,0-4.72-3.33,15.57,15.57,0,0,0-6.05-1.16,16.37,16.37,0,0,0-5.93,1.08,14.65,14.65,0,0,0-8.28,8.05A16.22,16.22,0,0,0,330.2,210Z" style="fill:#fff"/></g></g></g></svg>