<svg xmlns="http://www.w3.org/2000/svg" width="41.46" height="41.43" viewBox="0 0 41.46 41.43"><g transform="translate(-1794.266 -996.286)"><g transform="translate(1724.266 972.876)"><path d="M302.78,33.749s5.642-3.29,5.642-7.051a3.291,3.291,0,0,0-5.642-2.3,3.291,3.291,0,0,0-5.641,2.3C297.139,30.458,302.78,33.749,302.78,33.749Zm-2.35-8.615a1.551,1.551,0,0,1,1.117.47l1.234,1.259,1.234-1.259A1.563,1.563,0,0,1,306.7,26.7c0,1.015-.787,2.3-2.217,3.624a16.7,16.7,0,0,1-1.7,1.363,16.875,16.875,0,0,1-1.7-1.363c-1.43-1.322-2.218-2.609-2.218-3.623a1.565,1.565,0,0,1,1.563-1.563Z" transform="translate(-210.319)" fill="#2ed3ae"/><path d="M109.707,185.371l-.068-.021a25.451,25.451,0,0,1-2.531-.813c-.338-.13-.63-.253-.881-.369,2.935-.525,3.95-1.375,4.1-1.509l.719-.665-.75-.63c-.953-.8-1.153-2.8-1.365-4.926a16.352,16.352,0,0,0-1.508-6.367,6.154,6.154,0,0,0-2.451-2.43,9.993,9.993,0,0,0-8.384,0,6.157,6.157,0,0,0-2.451,2.43,16.353,16.353,0,0,0-1.508,6.367c-.071.7-.139,1.39-.235,2.028.193-6.461-1.087-15.2-9.432-15.2-11.045,0-9.714,15.311-8.972,20.383-.5.162-1.087.342-1.76.524l-.1.028A3.121,3.121,0,0,0,70,187.16v3.74h41.46v-3.085a2.574,2.574,0,0,0-1.756-2.446ZM94.306,177c.139-.019.28-.04.419-.066A8.6,8.6,0,0,0,96.88,182.1v.548a17.151,17.151,0,0,1-2.778-.536,8.752,8.752,0,0,1-.954-.334A11.574,11.574,0,0,0,94.306,177Zm3.894,3.987a6.768,6.768,0,0,1-1.75-4.215c0-.1,0-.2.008-.3a13.119,13.119,0,0,0,1.361-.578,17.89,17.89,0,0,0,3.745-2.543c.087-.075.172-.15.256-.225a13.365,13.365,0,0,0,2.94,1.626,5.741,5.741,0,0,1,.345,2.023,6.774,6.774,0,0,1-1.75,4.215,4.653,4.653,0,0,1-2.579,1.777A4.658,4.658,0,0,1,98.2,180.99Zm9.471,1.062a16.473,16.473,0,0,1-2.992.6V182.1a8.522,8.522,0,0,0,2.159-5.329,7.8,7.8,0,0,0-.135-1.477c.125.02.253.04.381.056.048.418.09.837.132,1.255.2,1.971.385,3.854,1.2,5.172a7.722,7.722,0,0,1-.739.269Zm-1.754-11.128a8.72,8.72,0,0,1,.9,2.639A10.394,10.394,0,0,1,103.1,171.9a22.457,22.457,0,0,0,1.873-2.175,4.6,4.6,0,0,1,.948,1.193Zm-10.279,0c.954-1.683,2.589-2.47,5.137-2.477a7.992,7.992,0,0,1,2.686.407,22.89,22.89,0,0,1-3.056,3.216,12.857,12.857,0,0,1-5.914,3.152,11.624,11.624,0,0,1,1.146-4.3Zm-.309,13.246c-.244.111-.526.232-.853.358a3.172,3.172,0,0,0-.688-.33l-.084-.025c-.681-.183-1.272-.363-1.773-.527.023-.153.046-.318.069-.49a12.131,12.131,0,0,0,3.329,1.015Zm-19.682-1.126a43.547,43.547,0,0,1-.406-5.182q-.022-1.386.061-2.642c.141-.033.285-.071.43-.111a10.976,10.976,0,0,0,2.5,5.127l-.008,1.168c0,.011-.009.021-.014.032-.139.274-.657.833-2.565,1.61Zm3.908-3.925A8.987,8.987,0,0,1,77.39,174.5a39.671,39.671,0,0,0,7.269-4.506l3.832,2.616a8.018,8.018,0,0,1,.083,1.163,8.565,8.565,0,0,1-2.21,5.347c-1.428,1.675-2.818,2.284-3.4,2.284s-1.976-.609-3.4-2.284ZM90.3,173.843l.207.142a30.6,30.6,0,0,1,.169,3.874,43.45,43.45,0,0,1-.406,5.18c-1.907-.774-2.427-1.334-2.565-1.607,0-.01-.01-.02-.014-.032l-.009-1.169a10.361,10.361,0,0,0,2.617-6.388Zm-.19-2.222-.06-.04v-.016l-.042-.014L86.1,168.88c.9-.717,1.616-1.315,2.029-1.668l.03.036a10.7,10.7,0,0,1,1.954,4.371Zm-12.348-4.372a6.274,6.274,0,0,1,5.2-2.26,6.791,6.791,0,0,1,3.879,1.05c-.8.68-2.435,2.026-4.343,3.4a27.277,27.277,0,0,1-7.009,3.944,12.371,12.371,0,0,1,2.276-6.131Zm-6.031,21.926V187.16a1.4,1.4,0,0,1,.924-1.317l.042-.013q1.626-.435,3.2-1.03c2.181-.84,3.368-1.637,3.848-2.584h0q.033-.067.051-.111l.112-.25a5.373,5.373,0,0,0,3.038,1.283A5.373,5.373,0,0,0,86,181.844l.114.252c.013.029.03.067.052.113h0c.478.947,1.666,1.744,3.848,2.584a33.351,33.351,0,0,0,3.216,1.037l.03.009a1.392,1.392,0,0,1,.929,1.318v2.015Zm38,0H95.915V187.16a3.12,3.12,0,0,0-.259-1.249,5.1,5.1,0,0,0,2.748-2.037h0c.023-.045.04-.085.052-.114l.062-.141a3.348,3.348,0,0,0,4.514,0l.063.142c.013.029.03.067.053.115.431.853,1.46,1.555,3.335,2.276a27.584,27.584,0,0,0,2.679.864h.014a.847.847,0,0,1,.557.8Z" transform="translate(0 -129.5)" fill="#2ed3ae"/><g transform="translate(70.023 64.048)"><path d="M.517-3.778a.211.211,0,0,1-.044.016.186.186,0,0,1-.046.006A.166.166,0,0,1,.308-3.8a.149.149,0,0,1-.043-.112.147.147,0,0,1,.043-.112.164.164,0,0,1,.118-.042.186.186,0,0,1,.046.006.228.228,0,0,1,.044.016v.061A.175.175,0,0,0,.475-4a.129.129,0,0,0-.043-.007.084.084,0,0,0-.065.027.1.1,0,0,0-.023.072.1.1,0,0,0,.023.072.085.085,0,0,0,.065.025.146.146,0,0,0,.043-.006.153.153,0,0,0,.042-.022Z" transform="translate(-0.266 4.062)" fill="#2ed3ae"/></g><g transform="translate(70.334 64.122)"><path d="M.619-3H.581a.052.052,0,0,0-.043.019.078.078,0,0,0-.014.05v.1H.453v-.221H.525v.036a.08.08,0,0,1,.03-.031A.085.085,0,0,1,.6-3.063H.62Z" transform="translate(-0.453 3.063)" fill="#2ed3ae"/></g><g transform="translate(70.518 64.122)"><path d="M.472-2.947v.02H.306a.057.057,0,0,0,.019.038.068.068,0,0,0,.043.012.183.183,0,0,0,.046-.006A.23.23,0,0,0,.461-2.9v.054a.223.223,0,0,1-.05.015.3.3,0,0,1-.05,0,.134.134,0,0,1-.094-.03.112.112,0,0,1-.034-.087.112.112,0,0,1,.032-.084.127.127,0,0,1,.09-.031.113.113,0,0,1,.083.031.114.114,0,0,1,.031.084ZM.4-2.971A.041.041,0,0,0,.387-3a.04.04,0,0,0-.03-.013A.049.049,0,0,0,.323-3a.053.053,0,0,0-.016.032Z" transform="translate(-0.234 3.063)" fill="#2ed3ae"/></g><g transform="translate(70.792 64.122)"><path d="M.35-2.935a.059.059,0,0,0-.034.008.025.025,0,0,0-.01.022.027.027,0,0,0,.008.021.041.041,0,0,0,.025.007.046.046,0,0,0,.034-.014.048.048,0,0,0,.014-.036v-.008Zm.109-.027v.126H.387v-.032a.087.087,0,0,1-.032.029.092.092,0,0,1-.043.009.081.081,0,0,1-.057-.02A.071.071,0,0,1,.234-2.9a.065.065,0,0,1,.027-.06.152.152,0,0,1,.084-.019H.387A.025.025,0,0,0,.373-3a.08.08,0,0,0-.04-.008.2.2,0,0,0-.043,0A.174.174,0,0,0,.254-3v-.053A.319.319,0,0,1,.3-3.059a.309.309,0,0,1,.046,0,.127.127,0,0,1,.087.024.1.1,0,0,1,.027.076Z" transform="translate(-0.234 3.063)" fill="#2ed3ae"/></g><g transform="translate(71.054 64.064)"><path d="M.183-3.844v.064H.256v.05H.183v.1a.028.028,0,0,0,.006.021.048.048,0,0,0,.025,0H.25v.051H.19A.084.084,0,0,1,.13-3.58a.082.082,0,0,1-.017-.059V-3.73H.078v-.05H.113v-.064Z" transform="translate(-0.078 3.844)" fill="#2ed3ae"/></g><g transform="translate(71.259 64.122)"><path d="M.472-2.947v.02H.306a.057.057,0,0,0,.019.038.068.068,0,0,0,.043.012.183.183,0,0,0,.046-.006A.23.23,0,0,0,.461-2.9v.054a.223.223,0,0,1-.05.015.3.3,0,0,1-.05,0,.134.134,0,0,1-.094-.03.112.112,0,0,1-.034-.087.112.112,0,0,1,.032-.084.127.127,0,0,1,.09-.031.113.113,0,0,1,.083.031.114.114,0,0,1,.031.084ZM.4-2.971A.041.041,0,0,0,.387-3a.04.04,0,0,0-.03-.013A.049.049,0,0,0,.323-3a.053.053,0,0,0-.016.032Z" transform="translate(-0.234 3.063)" fill="#2ed3ae"/></g><g transform="translate(71.535 64.041)"><path d="M.417-4.037v-.119h.07v.308H.417V-3.88a.1.1,0,0,1-.032.029.086.086,0,0,1-.04.009.084.084,0,0,1-.068-.032A.132.132,0,0,1,.25-3.96a.131.131,0,0,1,.025-.083.085.085,0,0,1,.068-.032.084.084,0,0,1,.039.009.1.1,0,0,1,.034.029ZM.37-3.894A.04.04,0,0,0,.4-3.91a.084.084,0,0,0,.013-.05A.077.077,0,0,0,.4-4.007a.039.039,0,0,0-.035-.017.041.041,0,0,0-.035.017.081.081,0,0,0-.012.047.089.089,0,0,0,.012.05.041.041,0,0,0,.039.016Z" transform="translate(-0.25 4.156)" fill="#2ed3ae"/></g><g transform="translate(71.98 64.041)"><path d="M.571-3.894A.04.04,0,0,0,.606-3.91a.084.084,0,0,0,.013-.05.077.077,0,0,0-.013-.047.039.039,0,0,0-.035-.017.041.041,0,0,0-.035.017.081.081,0,0,0-.012.047.089.089,0,0,0,.012.05.041.041,0,0,0,.035.016ZM.525-4.037a.1.1,0,0,1,.031-.029A.092.092,0,0,1,.6-4.075a.084.084,0,0,1,.067.032.128.128,0,0,1,.027.083.129.129,0,0,1-.027.084A.083.083,0,0,1,.6-3.843a.092.092,0,0,1-.042-.009.089.089,0,0,1-.031-.029v.032H.453v-.308H.525Z" transform="translate(-0.453 4.156)" fill="#2ed3ae"/></g><g transform="translate(72.242 64.128)"><path d="M.063-2.984h.07l.06.149.051-.149H.315l-.094.242a.124.124,0,0,1-.032.052.078.078,0,0,1-.05.015H.1v-.047H.12a.048.048,0,0,0,.027-.006.041.041,0,0,0,.013-.02v-.007Z" transform="translate(-0.063 2.984)" fill="#2ed3ae"/></g><g transform="translate(72.675 64.041)"><path d="M.453-4.156H.525v.308H.453Z" transform="translate(-0.453 4.156)" fill="#2ed3ae"/></g><g transform="translate(72.798 64.122)"><path d="M.35-2.935a.059.059,0,0,0-.034.008.025.025,0,0,0-.01.022.027.027,0,0,0,.008.021.041.041,0,0,0,.025.007.046.046,0,0,0,.034-.014.048.048,0,0,0,.014-.036v-.008Zm.109-.027v.126H.387v-.032a.087.087,0,0,1-.032.029.092.092,0,0,1-.043.009.081.081,0,0,1-.057-.02A.071.071,0,0,1,.234-2.9a.065.065,0,0,1,.027-.06.152.152,0,0,1,.084-.019H.387A.025.025,0,0,0,.373-3a.08.08,0,0,0-.04-.008.2.2,0,0,0-.043,0A.174.174,0,0,0,.254-3v-.053A.319.319,0,0,1,.3-3.059a.309.309,0,0,1,.046,0,.127.127,0,0,1,.087.024.1.1,0,0,1,.027.076Z" transform="translate(-0.234 3.063)" fill="#2ed3ae"/></g><g transform="translate(73.074 64.122)"><path d="M.467-3.05V-3a.317.317,0,0,0-.043-.01.2.2,0,0,0-.04,0,.08.08,0,0,0-.03,0A.015.015,0,0,0,.344-3a.015.015,0,0,0,.007.014.073.073,0,0,0,.028.007H.39a.147.147,0,0,1,.073.023.059.059,0,0,1,.02.05.061.061,0,0,1-.027.053.139.139,0,0,1-.078.017.327.327,0,0,1-.046,0,.368.368,0,0,1-.047-.01V-2.9a.251.251,0,0,0,.043.015.226.226,0,0,0,.046,0A.064.064,0,0,0,.4-2.891.018.018,0,0,0,.415-2.9a.016.016,0,0,0-.008-.015A.078.078,0,0,0,.38-2.921H.367A.13.13,0,0,1,.3-2.944a.061.061,0,0,1-.019-.049.058.058,0,0,1,.024-.052A.128.128,0,0,1,.38-3.062a.247.247,0,0,1,.04,0,.332.332,0,0,1,.047.009Z" transform="translate(-0.281 3.062)" fill="#2ed3ae"/></g><g transform="translate(73.3 64.064)"><path d="M.183-3.844v.064H.256v.05H.183v.1a.028.028,0,0,0,.006.021.048.048,0,0,0,.025,0H.25v.051H.19A.084.084,0,0,1,.13-3.58a.082.082,0,0,1-.017-.059V-3.73H.078v-.05H.113v-.064Z" transform="translate(-0.078 3.844)" fill="#2ed3ae"/></g><g transform="translate(73.509 64.122)"><path d="M.467-3.05V-3a.317.317,0,0,0-.043-.01.2.2,0,0,0-.04,0,.08.08,0,0,0-.03,0A.015.015,0,0,0,.344-3a.015.015,0,0,0,.007.014.073.073,0,0,0,.028.007H.39a.147.147,0,0,1,.073.023.059.059,0,0,1,.02.05.061.061,0,0,1-.027.053.139.139,0,0,1-.078.017.327.327,0,0,1-.046,0,.368.368,0,0,1-.047-.01V-2.9a.251.251,0,0,0,.043.015.226.226,0,0,0,.046,0A.064.064,0,0,0,.4-2.891.018.018,0,0,0,.415-2.9a.016.016,0,0,0-.008-.015A.078.078,0,0,0,.38-2.921H.367A.13.13,0,0,1,.3-2.944a.061.061,0,0,1-.019-.049.058.058,0,0,1,.024-.052A.128.128,0,0,1,.38-3.062a.247.247,0,0,1,.04,0,.332.332,0,0,1,.047.009Z" transform="translate(-0.281 3.062)" fill="#2ed3ae"/></g><g transform="translate(73.763 64.122)"><path d="M.525-2.868v.117H.453v-.305H.525v.032a.1.1,0,0,1,.031-.029A.092.092,0,0,1,.6-3.063a.084.084,0,0,1,.067.032.128.128,0,0,1,.027.083.129.129,0,0,1-.027.084A.083.083,0,0,1,.6-2.83a.092.092,0,0,1-.042-.009.089.089,0,0,1-.031-.029Zm.046-.143a.041.041,0,0,0-.035.017.081.081,0,0,0-.012.047.089.089,0,0,0,.012.05.041.041,0,0,0,.035.016A.04.04,0,0,0,.606-2.9a.084.084,0,0,0,.013-.05A.077.077,0,0,0,.606-3a.039.039,0,0,0-.035-.015Z" transform="translate(-0.453 3.063)" fill="#2ed3ae"/></g><g transform="translate(74.036 64.122)"><path d="M.35-2.935a.059.059,0,0,0-.034.008.025.025,0,0,0-.01.022.027.027,0,0,0,.008.021.041.041,0,0,0,.025.007.046.046,0,0,0,.034-.014.048.048,0,0,0,.014-.036v-.008Zm.109-.027v.126H.387v-.032a.087.087,0,0,1-.032.029.092.092,0,0,1-.043.009.081.081,0,0,1-.057-.02A.071.071,0,0,1,.234-2.9a.065.065,0,0,1,.027-.06.152.152,0,0,1,.084-.019H.387A.025.025,0,0,0,.373-3a.08.08,0,0,0-.04-.008.2.2,0,0,0-.043,0A.174.174,0,0,0,.254-3v-.053A.319.319,0,0,1,.3-3.059a.309.309,0,0,1,.046,0,.127.127,0,0,1,.087.024.1.1,0,0,1,.027.076Z" transform="translate(-0.234 3.063)" fill="#2ed3ae"/></g><g transform="translate(74.326 64.122)"><path d="M.619-3H.581a.052.052,0,0,0-.043.019.078.078,0,0,0-.014.05v.1H.453v-.221H.525v.036a.08.08,0,0,1,.03-.031A.085.085,0,0,1,.6-3.063H.62Z" transform="translate(-0.453 3.063)" fill="#2ed3ae"/></g><g transform="translate(74.525 64.041)"><path d="M.453-4.156H.525v.168l.081-.081H.688l-.108.1.116.12H.61L.525-3.941v.093H.453Z" transform="translate(-0.453 4.156)" fill="#2ed3ae"/></g><g transform="translate(70.012 64.446)"><path d="M.281-4.156v.046H.242A.034.034,0,0,0,.22-4.1a.025.025,0,0,0-.006.019v.016H.276v.05H.215v.171H.144V-4.02H.109v-.05H.144v-.016a.067.067,0,0,1,.02-.053.1.1,0,0,1,.064-.017Z" transform="translate(-0.109 4.156)" fill="#2ed3ae"/></g><g transform="translate(70.213 64.527)"><path d="M.619-3H.581a.052.052,0,0,0-.043.019.078.078,0,0,0-.014.05v.1H.453v-.221H.525v.036a.08.08,0,0,1,.03-.031A.085.085,0,0,1,.6-3.063H.62Z" transform="translate(-0.453 3.063)" fill="#2ed3ae"/></g><g transform="translate(70.397 64.527)"><path d="M.356-3.012A.042.042,0,0,0,.32-3a.081.081,0,0,0-.012.047A.089.089,0,0,0,.32-2.9a.042.042,0,0,0,.036.016A.043.043,0,0,0,.392-2.9.084.084,0,0,0,.4-2.947a.077.077,0,0,0-.013-.047.042.042,0,0,0-.031-.018Zm0-.051a.121.121,0,0,1,.089.031.111.111,0,0,1,.032.084.116.116,0,0,1-.032.087.123.123,0,0,1-.089.03.124.124,0,0,1-.089-.03.115.115,0,0,1-.032-.087.11.11,0,0,1,.032-.084.122.122,0,0,1,.089-.03Z" transform="translate(-0.234 3.063)" fill="#2ed3ae"/></g><g transform="translate(70.691 64.527)"><path d="M.659-3.021a.089.089,0,0,1,.031-.03.078.078,0,0,1,.042-.012.069.069,0,0,1,.057.024.1.1,0,0,1,.021.067v.135H.738v-.124A.065.065,0,0,0,.732-3,.025.025,0,0,0,.71-3.01a.037.037,0,0,0-.032.017.089.089,0,0,0-.01.047v.109H.6v-.116A.1.1,0,0,0,.588-3a.023.023,0,0,0-.022-.01.035.035,0,0,0-.031.017.089.089,0,0,0-.01.047v.109H.453v-.221H.525v.032a.086.086,0,0,1,.029-.029.081.081,0,0,1,.038-.009.073.073,0,0,1,.04.012.069.069,0,0,1,.027.03Z" transform="translate(-0.453 3.063)" fill="#2ed3ae"/></g><g transform="translate(71.226 64.469)"><path d="M.183-3.844v.064H.256v.05H.183v.1a.028.028,0,0,0,.006.021.048.048,0,0,0,.025,0H.25v.051H.19A.084.084,0,0,1,.13-3.58a.082.082,0,0,1-.017-.059V-3.73H.078v-.05H.113v-.064Z" transform="translate(-0.078 3.844)" fill="#2ed3ae"/></g><g transform="translate(71.447 64.446)"><path d="M.676-3.984v.135H.6v-.139A.036.036,0,0,0,.6-4a.023.023,0,0,0-.012-.01.029.029,0,0,0-.015,0A.042.042,0,0,0,.536-4a.084.084,0,0,0-.012.047v.109H.453v-.308H.525v.119a.1.1,0,0,1,.034-.029A.087.087,0,0,1,.6-4.075a.07.07,0,0,1,.058.024.1.1,0,0,1,.021.067Z" transform="translate(-0.453 4.156)" fill="#2ed3ae"/></g><g transform="translate(71.719 64.527)"><path d="M.472-2.947v.02H.306a.057.057,0,0,0,.019.038.068.068,0,0,0,.043.012.183.183,0,0,0,.046-.006A.23.23,0,0,0,.461-2.9v.054a.223.223,0,0,1-.05.015.3.3,0,0,1-.05,0,.134.134,0,0,1-.094-.03.112.112,0,0,1-.034-.087.112.112,0,0,1,.032-.084.127.127,0,0,1,.09-.031.113.113,0,0,1,.083.031.114.114,0,0,1,.031.084ZM.4-2.971A.041.041,0,0,0,.387-3a.04.04,0,0,0-.03-.013A.049.049,0,0,0,.323-3a.053.053,0,0,0-.016.032Z" transform="translate(-0.234 3.063)" fill="#2ed3ae"/></g><g transform="translate(72.155 64.459)"><path d="M.5-3.984H.586l.106.2v-.2H.765v.3H.679l-.106-.2v.2H.5Z" transform="translate(-0.5 3.984)" fill="#2ed3ae"/></g><g transform="translate(72.474 64.527)"><path d="M.356-3.012A.042.042,0,0,0,.32-3a.081.081,0,0,0-.012.047A.089.089,0,0,0,.32-2.9a.042.042,0,0,0,.036.016A.043.043,0,0,0,.392-2.9.084.084,0,0,0,.4-2.947a.077.077,0,0,0-.013-.047.042.042,0,0,0-.031-.018Zm0-.051a.121.121,0,0,1,.089.031.111.111,0,0,1,.032.084.116.116,0,0,1-.032.087.123.123,0,0,1-.089.03.124.124,0,0,1-.089-.03.115.115,0,0,1-.032-.087.11.11,0,0,1,.032-.084.122.122,0,0,1,.089-.03Z" transform="translate(-0.234 3.063)" fill="#2ed3ae"/></g><g transform="translate(72.766 64.533)"><path d="M.422-2.85v-.134H.494v.139a.031.031,0,0,0,0,.016.037.037,0,0,0,.012.012.035.035,0,0,0,.016,0,.041.041,0,0,0,.035-.017A.079.079,0,0,0,.57-2.881V-2.99H.645v.221H.575V-2.8a.109.109,0,0,1-.035.029.084.084,0,0,1-.04.013.075.075,0,0,1-.059-.023.107.107,0,0,1-.02-.069Z" transform="translate(-0.422 2.984)" fill="#2ed3ae"/></g><g transform="translate(73.057 64.527)"><path d="M.676-2.971v.135H.6v-.139a.036.036,0,0,0,0-.016A.023.023,0,0,0,.587-3,.029.029,0,0,0,.572-3a.042.042,0,0,0-.036.017.084.084,0,0,0-.012.047v.109H.453v-.221H.525v.032a.1.1,0,0,1,.034-.029A.087.087,0,0,1,.6-3.062a.07.07,0,0,1,.058.024.1.1,0,0,1,.021.067Z" transform="translate(-0.453 3.062)" fill="#2ed3ae"/></g><g transform="translate(73.489 64.459)"><path d="M.5-3.984H.626a.133.133,0,0,1,.087.025.086.086,0,0,1,.03.071.089.089,0,0,1-.03.072.136.136,0,0,1-.087.024H.576v.1H.5Zm.076.056v.082H.618a.049.049,0,0,0,.034-.01.04.04,0,0,0,.013-.031.037.037,0,0,0-.013-.03.049.049,0,0,0-.034-.01Z" transform="translate(-0.5 3.984)" fill="#2ed3ae"/></g><g transform="translate(73.782 64.527)"><path d="M.619-3H.581a.052.052,0,0,0-.043.019.078.078,0,0,0-.014.05v.1H.453v-.221H.525v.036a.08.08,0,0,1,.03-.031A.085.085,0,0,1,.6-3.063H.62Z" transform="translate(-0.453 3.063)" fill="#2ed3ae"/></g><g transform="translate(73.966 64.527)"><path d="M.356-3.012A.042.042,0,0,0,.32-3a.081.081,0,0,0-.012.047A.089.089,0,0,0,.32-2.9a.042.042,0,0,0,.036.016A.043.043,0,0,0,.392-2.9.084.084,0,0,0,.4-2.947a.077.077,0,0,0-.013-.047.042.042,0,0,0-.031-.018Zm0-.051a.121.121,0,0,1,.089.031.111.111,0,0,1,.032.084.116.116,0,0,1-.032.087.123.123,0,0,1-.089.03.124.124,0,0,1-.089-.03.115.115,0,0,1-.032-.087.11.11,0,0,1,.032-.084.122.122,0,0,1,.089-.03Z" transform="translate(-0.234 3.063)" fill="#2ed3ae"/></g><g transform="translate(74.213 64.446)"><path d="M-.14-4.07h.072v.217a.1.1,0,0,1-.022.067.076.076,0,0,1-.061.024H-.188v-.047h.013a.032.032,0,0,0,.027-.009A.053.053,0,0,0-.14-3.852Zm0-.087h.072V-4.1H-.14Z" transform="translate(0.188 4.156)" fill="#2ed3ae"/></g><g transform="translate(74.383 64.527)"><path d="M.472-2.947v.02H.306a.057.057,0,0,0,.019.038.068.068,0,0,0,.043.012.183.183,0,0,0,.046-.006A.23.23,0,0,0,.461-2.9v.054a.223.223,0,0,1-.05.015.3.3,0,0,1-.05,0,.134.134,0,0,1-.094-.03.112.112,0,0,1-.034-.087.112.112,0,0,1,.032-.084.127.127,0,0,1,.09-.031.113.113,0,0,1,.083.031.114.114,0,0,1,.031.084ZM.4-2.971A.041.041,0,0,0,.387-3a.04.04,0,0,0-.03-.013A.049.049,0,0,0,.323-3a.053.053,0,0,0-.016.032Z" transform="translate(-0.234 3.063)" fill="#2ed3ae"/></g><g transform="translate(74.657 64.527)"><path d="M.43-3.05v.057A.121.121,0,0,0,.4-3.007a.11.11,0,0,0-.03,0,.06.06,0,0,0-.046.017.066.066,0,0,0-.016.047A.068.068,0,0,0,.325-2.9a.06.06,0,0,0,.046.017.1.1,0,0,0,.031,0A.082.082,0,0,0,.43-2.9v.058a.138.138,0,0,1-.03.009.177.177,0,0,1-.035,0,.134.134,0,0,1-.094-.03A.112.112,0,0,1,.237-2.95a.107.107,0,0,1,.034-.084.132.132,0,0,1,.094-.031.177.177,0,0,1,.035,0A.138.138,0,0,1,.43-3.05Z" transform="translate(-0.234 3.062)" fill="#2ed3ae"/></g><g transform="translate(74.886 64.469)"><path d="M.183-3.844v.064H.256v.05H.183v.1a.028.028,0,0,0,.006.021.048.048,0,0,0,.025,0H.25v.051H.19A.084.084,0,0,1,.13-3.58a.082.082,0,0,1-.017-.059V-3.73H.078v-.05H.113v-.064Z" transform="translate(-0.078 3.844)" fill="#2ed3ae"/></g></g></g></svg>